<svg xmlns="http://www.w3.org/2000/svg" xmlns:svg="http://www.w3.org/2000/svg" id="svg84" width="319pt" height="320" version="1.1" viewBox="0 0 319.34 240"><g id="graph0" class="graph" transform="scale(1 1) rotate(0) translate(4 236)"><title id="title2">Website</title><polygon id="polygon4" fill="#fff" stroke="transparent" points="-4 4 -4 -236 315.344 -236 315.344 4 -4 4"/><g id="clust1" class="cluster"><title id="title6">cluster_server</title><polygon id="polygon8" fill="#fff" stroke="#000" points="8 -93 8 -224 108.328 -224 108.328 -93 8 -93"/><text id="text10" x="58.164" y="-207.4" fill="#000" font-family="Arial" font-size="14" text-anchor="middle">Server</text></g><g id="clust2" class="cluster"><title id="title13">cluster_client_1</title><polygon id="polygon15" fill="#fff" stroke="#000" points="203.016 -93 203.016 -224 303.344 -224 303.344 -93 203.016 -93"/><text id="text17" x="253.18" y="-207.4" fill="#000" font-family="Arial" font-size="14" text-anchor="middle">Client 1</text></g><g id="clust3" class="cluster"><title id="title20">cluster_client_2</title><polygon id="polygon22" fill="#fff" stroke="#000" points="203.016 -8 203.016 -85 303.344 -85 303.344 -8 203.016 -8"/><text id="text24" x="253.18" y="-68.4" fill="#000" font-family="Arial" font-size="14" text-anchor="middle">Client 2</text></g><g id="node1" class="node"><title id="title27">server_store_1</title><ellipse id="ellipse29" cx="58.164" cy="-119" fill="none" stroke="#000" rx="42.328" ry="18"/><text id="text31" x="58.164" y="-114.8" fill="#000" font-family="Arial" font-size="14" text-anchor="middle">Store 1</text></g><g id="node3" class="node"><title id="title34">client_1_store_1</title><ellipse id="ellipse36" cx="253.18" cy="-119" fill="none" stroke="#000" rx="42.328" ry="18"/><text id="text38" x="253.18" y="-114.8" fill="#000" font-family="Arial" font-size="14" text-anchor="middle">Store 1</text></g><g id="edge1" class="edge"><title id="title41">server_store_1--client_1_store_1</title><path id="path43" fill="none" stroke="#000" d="M100.4793,-119C133.19,-119 178.2569,-119 210.9468,-119"/><text id="text45" x="155.672" y="-123.2" fill="#000" font-family="Arial" font-size="14" text-anchor="middle">Store Link 1</text></g><g id="node5" class="node"><title id="title48">client_2_store_1</title><ellipse id="ellipse50" cx="253.18" cy="-34" fill="none" stroke="#000" rx="42.328" ry="18"/><text id="text52" x="253.18" y="-29.8" fill="#000" font-family="Arial" font-size="14" text-anchor="middle">Store 1</text></g><g id="edge3" class="edge"><title id="title55">server_store_1--client_2_store_1</title><path id="path57" fill="none" stroke="#000" d="M87.7825,-106.0903C124.5433,-90.0677 186.8609,-62.9059 223.6025,-46.8916"/><text id="text59" x="155.672" y="-95.2" fill="#000" font-family="Arial" font-size="14" text-anchor="middle">Store Link 3</text></g><g id="node2" class="node"><title id="title62">server_store_2</title><ellipse id="ellipse64" cx="58.164" cy="-173" fill="none" stroke="#000" rx="42.328" ry="18"/><text id="text66" x="58.164" y="-168.8" fill="#000" font-family="Arial" font-size="14" text-anchor="middle">Store 2</text></g><g id="node4" class="node"><title id="title69">client_1_store_2</title><ellipse id="ellipse71" cx="253.18" cy="-173" fill="none" stroke="#000" rx="42.328" ry="18"/><text id="text73" x="253.18" y="-168.8" fill="#000" font-family="Arial" font-size="14" text-anchor="middle">Store 2</text></g><g id="edge2" class="edge"><title id="title76">server_store_2--client_1_store_2</title><path id="path78" fill="none" stroke="#000" d="M100.4793,-173C133.19,-173 178.2569,-173 210.9468,-173"/><text id="text80" x="155.672" y="-177.2" fill="#000" font-family="Arial" font-size="14" text-anchor="middle">Store Link 2</text></g></g></svg>