<?xml version="1.0" encoding="UTF-8" standalone="no"?><!DOCTYPE svg PUBLIC "-//W3C//DTD SVG 1.1//EN" "http://www.w3.org/Graphics/SVG/1.1/DTD/svg11.dtd"><!-- Generated by graphviz version 2.40.1 (20161225.0304)
 --><!-- Title: Website Pages: 1 --><svg xmlns="http://www.w3.org/2000/svg" xmlns:xlink="http://www.w3.org/1999/xlink" width="319pt" height="240pt" viewBox="0.00 0.00 319.34 240.00">
<g id="graph0" class="graph" transform="scale(1 1) rotate(0) translate(4 236)">
<title>Website</title>
<g id="clust1" class="cluster">
<title>cluster_server</title>
<polygon fill="transparent" stroke="#000000" points="8,-93 8,-224 108.3275,-224 108.3275,-93 8,-93"/>
<text text-anchor="middle" x="58.1637" y="-207.4" font-family="Arial" font-size="14.00" fill="#000000">Server</text>
</g>
<g id="clust2" class="cluster">
<title>cluster_client_1</title>
<polygon fill="transparent" stroke="#000000" points="203.0161,-93 203.0161,-224 303.3436,-224 303.3436,-93 203.0161,-93"/>
<text text-anchor="middle" x="253.1798" y="-207.4" font-family="Arial" font-size="14.00" fill="#000000">Client 1</text>
</g>
<g id="clust3" class="cluster">
<title>cluster_client_2</title>
<polygon fill="transparent" stroke="#000000" points="203.0161,-8 203.0161,-85 303.3436,-85 303.3436,-8 203.0161,-8"/>
<text text-anchor="middle" x="253.1798" y="-68.4" font-family="Arial" font-size="14.00" fill="#000000">Client 2</text>
</g>
<!-- server_store_1 -->
<g id="node1" class="node">
<title>server_store_1</title>
<ellipse fill="none" stroke="#000000" cx="58.1637" cy="-119" rx="42.3281" ry="18"/>
<text text-anchor="middle" x="58.1637" y="-114.8" font-family="Arial" font-size="14.00" fill="#000000">Store 1</text>
</g>
<!-- client_1_store_1 -->
<g id="node3" class="node">
<title>client_1_store_1</title>
<ellipse fill="none" stroke="#000000" cx="253.1798" cy="-119" rx="42.3281" ry="18"/>
<text text-anchor="middle" x="253.1798" y="-114.8" font-family="Arial" font-size="14.00" fill="#000000">Store 1</text>
</g>
<!-- server_store_1&#45;&#45;client_1_store_1 -->
<g id="edge1" class="edge">
<title>server_store_1--client_1_store_1</title>
<path fill="none" stroke="#000000" d="M100.4793,-119C133.19,-119 178.2569,-119 210.9468,-119"/>
<text text-anchor="middle" x="155.6718" y="-123.2" font-family="Arial" font-size="14.00" fill="#000000">Store Link 1</text>
</g>
<!-- client_2_store_1 -->
<g id="node5" class="node">
<title>client_2_store_1</title>
<ellipse fill="none" stroke="#000000" cx="253.1798" cy="-34" rx="42.3281" ry="18"/>
<text text-anchor="middle" x="253.1798" y="-29.8" font-family="Arial" font-size="14.00" fill="#000000">Store 1</text>
</g>
<!-- server_store_1&#45;&#45;client_2_store_1 -->
<g id="edge3" class="edge">
<title>server_store_1--client_2_store_1</title>
<path fill="none" stroke="#000000" d="M87.7825,-106.0903C124.5433,-90.0677 186.8609,-62.9059 223.6025,-46.8916"/>
<text text-anchor="middle" x="155.6718" y="-95.2" font-family="Arial" font-size="14.00" fill="#000000">Store Link 3</text>
</g>
<!-- server_store_2 -->
<g id="node2" class="node">
<title>server_store_2</title>
<ellipse fill="none" stroke="#000000" cx="58.1637" cy="-173" rx="42.3281" ry="18"/>
<text text-anchor="middle" x="58.1637" y="-168.8" font-family="Arial" font-size="14.00" fill="#000000">Store 2</text>
</g>
<!-- client_1_store_2 -->
<g id="node4" class="node">
<title>client_1_store_2</title>
<ellipse fill="none" stroke="#000000" cx="253.1798" cy="-173" rx="42.3281" ry="18"/>
<text text-anchor="middle" x="253.1798" y="-168.8" font-family="Arial" font-size="14.00" fill="#000000">Store 2</text>
</g>
<!-- server_store_2&#45;&#45;client_1_store_2 -->
<g id="edge2" class="edge">
<title>server_store_2--client_1_store_2</title>
<path fill="none" stroke="#000000" d="M100.4793,-173C133.19,-173 178.2569,-173 210.9468,-173"/>
<text text-anchor="middle" x="155.6718" y="-177.2" font-family="Arial" font-size="14.00" fill="#000000">Store Link 2</text>
</g>
</g>
</svg>